<svg xmlns="http://www.w3.org/2000/svg" viewBox="0 0 156.81 171.58"><defs><style>.cls-1,.cls-2{fill:#1186ff;}.cls-1{opacity:0.15;}</style></defs><g id="Layer_2" data-name="Layer 2"><g id="Layer_1-2" data-name="Layer 1"><rect class="cls-1" y="25.45" width="156.81" height="126.95"/><path class="cls-2" d="M113,83.73v62.41H83.28v25.44h50.33a22.87,22.87,0,0,0,22.87-22.87v-42.1a22.87,22.87,0,0,0-22.87-22.88Z"/><path class="cls-2" d="M106.15,0V25.45H113V76.64h20.59a22.87,22.87,0,0,0,22.87-22.88V22.88A22.87,22.87,0,0,0,133.61,0Z"/><polygon class="cls-2" points="33.87 146.14 12.14 146.14 12.14 171.59 76.19 171.59 76.19 92.66 33.87 92.66 33.87 146.14"/><path class="cls-2" d="M7.56,0V25.45H33.87V73.21H76.19V25.45H99.07V0Z"/></g></g></svg>